<svg width="200" height="19" viewBox="0 0 200 19" fill="none" xmlns="http://www.w3.org/2000/svg">
<g id="Group">
<path id="Vector" d="M6.84406 0.266602H10.9013L17.16 18.7153H12.8299L11.9748 15.9316H5.75242L4.8973 18.7153H0.603516L6.84406 0.266602ZM10.8831 12.3838L8.8454 5.83395L6.84406 12.3838H10.8831Z" fill="#F9F7F1"/>
<path id="Vector_2" d="M24.1826 0.266602H28.349V14.8582H34.6987V18.7153H24.2008V0.266602H24.1826Z" fill="#F9F7F1"/>
<path id="Vector_3" d="M41.8857 0.266602H52.3473V4.12373H46.0522V7.45322H52.2745V11.3103H46.0522V14.84H52.4383V18.6971H41.8857V0.266602Z" fill="#F9F7F1"/>
<path id="Vector_4" d="M66.8661 12.9296L63.4638 18.7153H59.0791L64.701 9.21804L59.4066 0.266602H64.0279L67.0117 5.30634L69.9773 0.266602H74.362L69.195 9.0179L74.9079 18.7153H70.2684L66.8661 12.9296Z" fill="#F9F7F1"/>
<path id="Vector_5" d="M86.3704 0.266602H90.4277L96.6864 18.7153H92.3562L91.5011 15.9316H85.2788L84.4237 18.7153H80.1299L86.3704 0.266602ZM90.3913 12.3838L88.3536 5.83395L86.3522 12.3838H90.3913Z" fill="#F9F7F1"/>
<path id="Vector_6" d="M103.709 0.266602H107.475L114.498 11.2194V0.266602H118.41V18.7153H114.644L107.621 7.78071V18.7153H103.709V0.266602Z" fill="#F9F7F1"/>
<path id="Vector_7" d="M127.034 0.266602H132.783C138.606 0.266602 142.554 3.85082 142.554 9.49095C142.554 15.1311 138.587 18.7153 132.783 18.7153H127.034V0.266602ZM132.765 14.7672C136.095 14.7672 138.223 12.8932 138.223 9.50914C138.223 6.12506 136.095 4.25109 132.765 4.25109H131.182V14.7854H132.765V14.7672Z" fill="#F9F7F1"/>
<path id="Vector_8" d="M154.561 11.5105V18.7335H150.395V0.266602H156.653C160.565 0.266602 162.967 2.21335 162.967 6.01589C162.967 8.54486 161.438 10.4552 158.837 11.1102L164.131 18.7335H159.109L154.561 11.5105ZM156.453 8.16279C157.854 8.16279 158.727 7.34406 158.727 5.9977C158.727 4.66954 157.854 3.83262 156.453 3.83262H154.543V8.14459H156.453V8.16279Z" fill="#F9F7F1"/>
<path id="Vector_9" d="M171.372 0.266602H175.538V18.7153H171.372V0.266602Z" fill="#F9F7F1"/>
<path id="Vector_10" d="M188.802 0.266602H192.859L199.118 18.7153H194.788L193.933 15.9316H187.71L186.855 18.7153H182.562L188.802 0.266602ZM192.841 12.3838L190.803 5.83395L188.802 12.3838H192.841Z" fill="#F9F7F1"/>
</g>
</svg>
