<svg width="24" height="21" viewBox="0 0 24 21" fill="none" xmlns="http://www.w3.org/2000/svg">
<g id="Group">
<path id="Vector" d="M7.32031 11.0595C7.32031 10.2355 7.90148 9.68616 8.49786 9.68616C9.10489 9.68616 9.68909 10.2463 9.6754 11.0472V11.0595C9.6754 11.8851 9.09272 12.4329 8.49786 12.4329C7.91669 12.4329 7.32031 11.8789 7.32031 11.0595Z" fill="#9E7C5E"/>
<path id="Vector_2" d="M14.4513 11.0595C14.4513 10.6243 14.5821 10.3188 14.7464 10.1352C14.8405 10.0337 14.9553 9.95425 15.0827 9.90229C15.2101 9.85033 15.3472 9.82712 15.4843 9.83427C16.0792 9.83427 16.6619 10.3821 16.6619 11.2076C16.6619 12.0317 16.0792 12.581 15.4843 12.581C15.2409 12.581 15.0036 12.4606 14.7997 12.1875C14.5687 11.859 14.4467 11.4645 14.4513 11.061V11.0595Z" fill="#9E7C5E"/>
<path id="Vector_3" fill-rule="evenodd" clip-rule="evenodd" d="M6.37693 17.8723C6.79835 18.039 7.26389 18.2072 7.77355 18.3615C6.87594 19.3059 5.4854 20.6299 5.4854 20.6299C1.16774 20.491 0.595703 16.9033 0.595703 16.9033C0.595703 10.524 3.41025 2.87022 3.41025 2.87022C6.22175 0.729928 8.89785 0.787023 8.89785 0.787023L9.14583 2.47827C7.84962 2.82856 6.51994 3.40568 5.09441 4.19575L5.87488 5.64628C8.22692 4.34543 10.1423 3.73899 12.0091 3.73745C13.8743 3.73745 15.7866 4.3408 18.1326 5.64628L18.9161 4.19575C17.4206 3.36402 16.0316 2.76838 14.6745 2.42581L15.1111 0.787023C15.1111 0.787023 17.7888 0.728385 20.6018 2.86868C20.6018 2.86868 23.4148 10.521 23.4148 16.9017C23.4148 16.9017 22.8428 20.4894 18.5251 20.6283C18.5251 20.6283 17.2259 19.329 16.3678 18.3924C16.8181 18.2535 17.2745 18.0837 17.737 17.8893C18.5789 17.5657 19.3822 17.1469 20.1317 16.6409L19.2341 15.2598C18.4856 15.7614 17.7781 16.1086 17.1528 16.3447L17.1422 16.3493L17.1346 16.3524L17.1194 16.3585C16.2682 16.7275 15.3779 16.9957 14.4661 17.1579L14.4524 17.1594C12.8792 17.4531 11.2659 17.4468 9.69505 17.1409C8.76337 16.9556 7.8503 16.6844 6.96723 16.3308C6.20045 16.0268 5.54474 15.7043 4.91032 15.2537L3.9762 16.6085C4.7521 17.1594 5.53409 17.5375 6.37389 17.8708L6.37693 17.8723ZM8.49773 8.03346C6.86529 8.03346 5.68927 9.46856 5.68927 11.0595C5.68927 12.6582 6.89116 14.0871 8.49773 14.0871C10.1271 14.0871 11.3016 12.6566 11.3047 11.0672C11.3275 9.45312 10.115 8.03346 8.49773 8.03346ZM15.4839 8.1816C14.7125 8.1816 14.0249 8.47942 13.5365 9.02568C13.0573 9.56577 12.8215 10.2879 12.8215 11.0595C12.8215 11.8311 13.0588 12.5949 13.5 13.1859C13.9458 13.7846 14.6319 14.2352 15.4839 14.2352C17.1163 14.2352 18.2908 12.8001 18.2908 11.2076C18.2908 9.61515 17.1163 8.1816 15.4839 8.1816Z" fill="#9E7C5E"/>
</g>
</svg>
