<svg width="20" height="20" viewBox="0 0 20 20" fill="none" xmlns="http://www.w3.org/2000/svg">
<g id="Group">
<g id="Group_2">
<path id="Vector" d="M10.0936 8.95926L4.27246 5.52524L10.0067 2.72693L15.9201 5.59059L10.0936 8.95926Z" fill="white"/>
</g>
<g id="Group_3">
<path id="Vector_2" d="M10.0959 6.56798L5.32715 3.75478L10.0077 1.47063L14.8535 3.81243L10.0959 6.56798Z" fill="white" stroke="#9E7C5E"/>
</g>
<g id="Group_4">
<g id="Group_5">
<path id="Vector_3" d="M10.4033 9.67214V19.9148L19.83 14.3657L16.2733 6.17871L10.4033 9.67214Z" fill="white"/>
</g>
<g id="Group_6">
<g id="Group_7">
<path id="Vector_4" d="M9.61059 9.67214L3.74062 6.17871L0.830078 14.6865L2.67632 15.7856L2.69261 15.7322L4.13702 11.508L7.11273 13.2785V15.4411V18.4236L9.61059 19.9148V9.67214Z" fill="white"/>
</g>
<g id="Group_8">
<path id="Vector_5" d="M2.6759 15.7856L2.66504 15.8154L2.6759 15.7856Z" fill="white"/>
</g>
<g id="Group_9">
<path id="Vector_6" d="M2.66504 15.8154L7.11231 18.4711V18.4235L2.6759 15.7856L2.66504 15.8154Z" fill="white"/>
</g>
<g id="Group_10">
<path id="Vector_7" d="M2.69305 15.7323L2.67676 15.7857L7.11317 18.4296V15.4412C5.73392 15.5243 3.8931 15.6491 2.69305 15.7323Z" fill="white"/>
</g>
</g>
</g>
</g>
</svg>
