<svg width="300" height="46" viewBox="0 0 300 46" fill="none" xmlns="http://www.w3.org/2000/svg">
    <path d="M24.4108 19.3736L9.07227 11.1034L24.1819 4.36414L39.7637 11.2608L24.4108 19.3736Z" fill="#CCA780"/>
    <path d="M24.4108 15.0095L9.07227 6.73924L24.1819 0L39.7637 6.88232L24.4108 15.0095Z" fill="#9E7C5E"/>
    <path d="M25.2266 21.0904V45.758L50.0659 32.394L40.6939 12.6771L25.2266 21.0904Z" fill="#CCA780"/>
    <path d="M23.1366 21.0904L7.66928 12.6771L0 33.1667L4.86484 35.8137L4.90776 35.6849L8.71378 25.5117L16.5548 29.7756V34.9838V42.1666L23.1366 45.758V21.0904Z" fill="#CCA780"/>
    <path d="M4.8643 35.8137L4.83594 35.8846L4.8643 35.8137Z" fill="#9E7C5E"/>
    <path d="M4.83594 35.8853L16.5545 42.2811V42.1666L4.86456 35.8137L4.83594 35.8853Z" fill="#9E7C5E"/>
    <path d="M4.90816 35.6851L4.86523 35.8139L16.5552 42.1811V34.984C12.9208 35.1843 8.0703 35.4848 4.90816 35.6851Z" fill="#9E7C5E"/>
    <path d="M34.2538 8.94275H32.5225V24.5245H34.2538V8.94275Z" fill="#9E7C5E"/>
    <path d="M36.4053 26.3765L33.2588 23.23L30.1123 26.3765L33.2588 29.523L36.4053 26.3765Z" fill="#9E7C5E"/>
    <path d="M69.3172 11.8142H74.1792L81.6793 33.9222H76.4903L75.4656 30.5863H68.009L66.9843 33.9222H61.8389L69.3172 11.8142ZM74.1574 26.3348L71.7155 18.4858L69.3172 26.3348H74.1574Z" fill="#F9F7F1"/>
    <path d="M90.0947 11.8142H95.0875V29.3H102.697V33.9222H90.1165V11.8142H90.0947Z" fill="#F9F7F1"/>
    <path d="M111.31 11.8142H123.846V16.4364H116.302V20.4263H123.759V25.0485H116.302V29.2782H123.955V33.9004H111.31V11.8142Z" fill="#F9F7F1"/>
    <path d="M141.245 26.9889L137.168 33.9222H131.913L138.65 22.5411L132.306 11.8142H137.843L141.419 17.8536L144.973 11.8142H150.227L144.035 22.3013L150.881 33.9222H145.322L141.245 26.9889Z" fill="#F9F7F1"/>
    <path d="M164.617 11.8142H169.479L176.979 33.9222H171.79L170.765 30.5863H163.309L162.284 33.9222H157.139L164.617 11.8142ZM169.435 26.3348L166.994 18.4858L164.595 26.3348H169.435Z" fill="#F9F7F1"/>
    <path d="M185.395 11.8142H189.908L198.324 24.9394V11.8142H203.011V33.9222H198.498L190.082 20.8187V33.9222H185.395V11.8142Z" fill="#F9F7F1"/>
    <path d="M213.347 11.8142H220.236C227.213 11.8142 231.944 16.1093 231.944 22.8682C231.944 29.627 227.191 33.9222 220.236 33.9222H213.347V11.8142ZM220.215 29.191C224.204 29.191 226.755 26.9453 226.755 22.89C226.755 18.8347 224.204 16.589 220.215 16.589H218.318V29.2128H220.215V29.191Z" fill="#F9F7F1"/>
    <path d="M246.334 25.2883V33.944H241.341V11.8142H248.841C253.529 11.8142 256.406 14.1471 256.406 18.7039C256.406 21.7344 254.575 24.0237 251.457 24.8086L257.802 33.944H251.784L246.334 25.2883ZM248.601 21.2766C250.28 21.2766 251.326 20.2955 251.326 18.6821C251.326 17.0905 250.28 16.0875 248.601 16.0875H246.312V21.2548H248.601V21.2766Z" fill="#F9F7F1"/>
    <path d="M266.479 11.8142H271.471V33.9222H266.479V11.8142Z" fill="#F9F7F1"/>
    <path d="M287.366 11.8142H292.228L299.728 33.9222H294.539L293.514 30.5863H286.058L285.033 33.9222H279.888L287.366 11.8142ZM292.206 26.3348L289.764 18.4858L287.366 26.3348H292.206Z" fill="#F9F7F1"/>
    </svg>
    