<svg width="20" height="19" viewBox="0 0 20 19" fill="none" xmlns="http://www.w3.org/2000/svg">
    <g clip-path="url(#clip0_1762_110)">
    <path d="M18.3252 4.31819V3.54919C18.3252 1.95202 16.9345 0.706087 15.3451 0.879852L1.7002 2.3735H15.8249C17.0394 2.3735 18.0515 3.20166 18.3252 4.31819Z" fill="white"/>
    <path d="M15.1376 11.7682V8.9592C15.1376 7.95542 15.8559 7.14187 16.7422 7.13377V5.01693C16.7422 4.15481 16.1239 3.45459 15.3627 3.45459H1.49665C1.26078 3.45459 1.04278 3.52745 0.849802 3.64482C0.417381 3.90791 0.117188 4.42194 0.117188 5.01693V15.7104C0.117188 16.5726 0.735443 17.2728 1.49665 17.2728H15.3592C16.1132 17.2728 16.7279 16.5847 16.7386 15.7307C16.7386 15.7226 16.7386 15.7145 16.7386 15.7104V13.5936C15.8523 13.5895 15.134 12.7719 15.134 11.7682H15.1376Z" fill="white"/>
    <path d="M18.1746 7.77271H16.8961C16.8961 7.77271 16.8887 7.77271 16.885 7.77271C16.3677 7.77701 15.9502 8.26765 15.9502 8.87018V11.857C15.9502 12.4596 16.3677 12.9502 16.885 12.9545C16.885 12.9545 16.8924 12.9545 16.8961 12.9545H18.1746C18.6956 12.9545 19.1169 12.4639 19.1169 11.857V8.87018C19.1169 8.26334 18.6956 7.77271 18.1746 7.77271Z" fill="white"/>
    </g>
    <defs>
    <clipPath id="clip0_1762_110">
    <rect width="19" height="19" fill="white" transform="translate(0.117188)"/>
    </clipPath>
    </defs>
    </svg>
    