<svg width="24" height="21" viewBox="0 0 24 21" fill="none" xmlns="http://www.w3.org/2000/svg">
<path id="Vector" d="M23.4281 3.16967C22.5888 3.56138 21.6756 3.8433 20.7349 3.9531C21.7115 3.32528 22.4429 2.33342 22.7918 1.16363C21.8753 1.75354 20.8713 2.1672 19.8244 2.38625C19.3868 1.88007 18.8575 1.47682 18.2696 1.20164C17.6817 0.926451 17.0477 0.785224 16.4072 0.786755C13.8155 0.786755 11.7311 3.05987 11.7311 5.84934C11.7311 6.24105 11.775 6.63276 11.8463 7.00964C7.96564 6.79004 4.50457 4.784 2.20358 1.71262C1.78431 2.48749 1.5646 3.36976 1.56731 4.26765C1.56731 6.02442 2.39281 7.57347 3.65164 8.48449C2.90979 8.45288 2.18532 8.23225 1.53714 7.84054V7.90286C1.53714 10.3629 3.14427 12.4016 5.28619 12.8705C4.88402 12.9835 4.4703 13.0413 4.05479 13.0426C3.75037 13.0426 3.4624 13.01 3.17169 12.9654C3.76408 14.9715 5.48913 16.4285 7.54329 16.476C5.93617 17.8381 3.92315 18.6393 1.73735 18.6393C1.34516 18.6393 0.983149 18.6245 0.607422 18.577C2.68078 20.0163 5.14083 20.8472 7.79012 20.8472C16.3907 20.8472 21.0969 13.1376 21.0969 6.44581C21.0969 6.22621 21.0969 6.00662 21.0832 5.78702C21.9937 5.06591 22.7918 4.17269 23.4281 3.16967Z" fill="#9E7C5E"/>
</svg>
