<?xml version="1.0" encoding="utf-8"?>
<!-- Generator: Adobe Illustrator 27.8.1, SVG Export Plug-In . SVG Version: 6.00 Build 0)  -->
<svg version="1.1" id="Layer_1" xmlns="http://www.w3.org/2000/svg" xmlns:xlink="http://www.w3.org/1999/xlink" x="0px" y="0px"
	 viewBox="0 0 500 500" style="enable-background:new 0 0 500 500;" xml:space="preserve">
<style type="text/css">
	.st0{fill:#FFD98D;}
	.st1{fill:#9E7C5E;}
	.st2{clip-path:url(#SVGID_00000078736166175627233180000006718275096685568684_);}
	.st3{fill:url(#SVGID_00000168110542391705812860000004575272669929682076_);}
	.st4{opacity:0.77;}
	.st5{fill:#CCA780;}
</style>
<g>
	<path class="st1" d="M158.4,423.2c0,41.9,39.1,75.9,87.3,75.9s87.3-34,87.3-75.9H158.4L158.4,423.2z"/>
	<g>
		<path class="st1" d="M350.8,398.5h-201l-0.8-12.4c-1.4-21.2-5.9-40.9-13.2-58.8c-6.9-16.7-14.5-27.6-22.5-39.2
			c-9.8-14.1-19.9-28.7-27.1-52.5c-0.3-1.2-7.6-26.3-7.6-53.6C78.6,82.1,155.5,0.8,250,0.8S421.4,82.1,421.4,182
			c0,27.8-7.3,52.6-7.6,53.6c-7.7,24.5-18.5,39.2-28.9,53.4c-9,12.2-17.4,23.8-24.2,41.9c-6.2,16.5-9.5,34.9-9.7,54.5L350.8,398.5z
			 M174.3,372H325c1.3-17.9,4.9-34.8,10.8-50.4c8.1-21.5,18.1-35.1,27.7-48.3c9.6-13.1,18.6-25.4,24.9-45.5c0,0,6.5-22,6.5-45.8
			c0-85.3-65-154.6-144.9-154.6S105.1,96.7,105.1,182c0,23.4,6.5,45.8,6.5,46.1c6,19.7,14.1,31.5,23.5,45
			c8.1,11.6,17.2,24.9,25.2,44.2C167.3,334.2,172,352.6,174.3,372z"/>
	</g>
	<path class="st0" d="M305,245.7c7.2-9,11.1-22.5,9.6-33.6c-1-7.7-4.5-13.9-9.9-18c-11.7-8.6-28.5-5.1-38.4,2.6
		c-11.7,9.1-16,25.5-10.6,39.9l1.8,8.6c-2,0.1-4.1,0.1-6.2,0.2l-2.2,0.1c-5.1,0.1-10.3,0.3-15.4,0.2c0.3-3.8,0.6-7.4,0.8-11
		c0.7-11.2,2.1-32-12.5-42.1c-6.5-4.5-15.7-6.2-24.7-4.7c-8.5,1.4-15.9,5.7-20.3,11.7c-11,15.2-0.3,36.2,9.6,46.6
		c7.1,7.5,16.4,12.3,28.4,14.7c-4.3,41.2-12,86.5-17.8,117.6l-0.7,3.8l16.9,3l0.7-3.7c5.9-31.5,13.7-77.3,18-118.9
		c6.3,0.2,12.6,0,18.2-0.2c4-0.1,7.4-0.2,10.7-0.4l25,119.7l3.3-0.7l0.4,3.7h4.7l-0.2-0.8l9.4-1.9l-25.5-121.8
		C290.5,258.1,298.8,253.5,305,245.7z M291.6,235.2c-3.5,4.4-8.7,7-16.8,8.5l-2.4-11.6l-0.4-1c-3.1-7.7-1.1-16.4,4.9-21.1
		c3.2-2.5,7.5-3.9,11.5-3.9c2.4,0,4.5,0.6,5.9,1.6c2.1,1.5,2.9,4.5,3.2,6.6C298.5,221,295.9,229.8,291.6,235.2z M202.8,204.5h0.9
		c3.3,0,6.4,0.8,8.5,2.2c6.7,4.6,5.7,19.8,5.2,27.1c-0.2,3.4-0.5,6.8-0.8,10.2c-7.4-1.7-13.1-4.8-17.4-9.3
		c-6.3-6.6-12.6-19-8.2-25.1c1.7-2.3,5.1-4.2,9.1-4.8C201.1,204.6,201.9,204.5,202.8,204.5z"/>
	<path class="st1" d="M332.6,368.4H163.4c-13.2,0-23.9,10.4-23.9,23.2c0,12.8,10.7,23.2,23.9,23.2h169.3c13.2,0,23.9-10.4,23.9-23.2
		C356.5,378.8,345.8,368.4,332.6,368.4z"/>
	<path class="st0" d="M332.6,402.1H163.4c-13.2,0-23.9,10.4-23.9,23.2s10.7,23.2,23.9,23.2h169.3c13.2,0,23.9-10.4,23.9-23.2
		S345.8,402.1,332.6,402.1z"/>
</g>
</svg>
