<svg width="42" height="39" viewBox="0 0 42 39" fill="none" xmlns="http://www.w3.org/2000/svg">
<g id="Group">
<g id="Group_2">
<g id="Group_3">
<path id="Vector" d="M20.3701 16.5747L7.57031 9.67334L20.179 4.04956L33.1818 9.80468L20.3701 16.5747Z" fill="#CCA780"/>
</g>
<g id="Group_4">
<path id="Vector_2" d="M20.3701 12.933L7.57031 6.03161L20.179 0.407837L33.1818 6.15102L20.3701 12.933Z" fill="#9E7C5E"/>
</g>
<g id="Group_5">
<g id="Group_6">
<path id="Vector_3" d="M21.0508 18.0075V38.5921L41.7787 27.4401L33.958 10.9867L21.0508 18.0075Z" fill="#CCA780"/>
</g>
<g id="Group_7">
<g id="Group_8">
<path id="Vector_4" d="M19.3071 18.0075L6.39988 10.9867L0 28.0849L4.05962 30.2938L4.09544 30.1863L7.2715 21.6969L13.8147 25.2551V29.6013V35.5952L19.3071 38.5921V18.0075Z" fill="#CCA780"/>
</g>
<g id="Group_9">
<path id="Vector_5" d="M4.06001 30.2938L4.03613 30.3535L4.06001 30.2938Z" fill="#9E7C5E"/>
</g>
<g id="Group_10">
<path id="Vector_6" d="M4.03613 30.3535L13.8151 35.6907V35.5952L4.06001 30.2938L4.03613 30.3535Z" fill="#9E7C5E"/>
</g>
<g id="Group_11">
<path id="Vector_7" d="M4.09539 30.1864L4.05957 30.2938L13.8146 35.6072V29.6013C10.7818 29.7685 6.73414 30.0192 4.09539 30.1864Z" fill="#9E7C5E"/>
</g>
</g>
</g>
</g>
<g id="Group_12">
<path id="Vector_8" d="M28.5844 7.87036H27.1396V20.8731H28.5844V7.87036Z" fill="#9E7C5E"/>
</g>
<g id="Group_13">
<path id="Vector_9" d="M30.3796 22.4186L27.7539 19.7928L25.1282 22.4186L27.7539 25.0443L30.3796 22.4186Z" fill="#9E7C5E"/>
</g>
</g>
</svg>
