<?xml version="1.0" encoding="utf-8"?>
<!-- Generator: Adobe Illustrator 27.8.1, SVG Export Plug-In . SVG Version: 6.00 Build 0)  -->
<svg version="1.1" id="Layer_1" xmlns="http://www.w3.org/2000/svg" xmlns:xlink="http://www.w3.org/1999/xlink" x="0px" y="0px"
	 viewBox="0 0 500 500" style="enable-background:new 0 0 500 500;" xml:space="preserve">
<style type="text/css">
	.st0{fill:#FFD98D;}
	.st1{fill:#9E7C5E;}
	.st2{clip-path:url(#SVGID_00000170963604852443234380000010108392116106320783_);}
	.st3{fill:url(#SVGID_00000060019447140599625480000000822071616124108719_);}
	.st4{opacity:0.77;}
	.st5{fill:#CCA780;}
</style>
<g>
	<path class="st0" d="M345.7,249.9c0,51.1-42.9,92.4-95.7,92.4c-52.9,0-95.7-41.4-95.7-92.4c0-51.1,42.8-92.4,95.7-92.4
		C302.9,157.5,345.7,198.8,345.7,249.9z"/>
	<path class="st1" d="M264.7,129.6c-10,0-19.4,0-29.3,0c0-1.3,0-2.5,0-3.7c0-7.4-0.1-14.9,0.1-22.3c0.1-2.6-0.7-3.8-3.3-4.8
		c-19.9-8-31.4-25.7-30.2-46.2c1.2-20.7,17.4-38.5,38.7-42.6c21.1-4.1,43,6.2,52.4,24.8c12.7,25,1.2,54-25.5,64.3
		c-2.2,0.8-2.9,1.8-2.8,4c0.1,7.8,0,15.6,0,23.3C264.7,127.4,264.7,128.6,264.7,129.6z"/>
	<path class="st1" d="M125.4,235.8c0,9.6,0,18.7,0,28.3c-1.3,0-2.5,0-3.8,0c-7.9,0-15.9,0.1-23.8-0.1c-2.3,0-3.3,0.7-4.1,2.8
		c-8.1,19.5-26.9,30.8-48.7,29.5C24.1,295,5.3,279,1.4,259.1c-4.1-20.7,6.5-41.7,25.6-50.7c26-12.2,55.4-1.5,66.5,24.2
		c1.1,2.5,2.4,3.2,5,3.1c7.7-0.2,15.4-0.1,23.1-0.1C122.9,235.8,124.1,235.8,125.4,235.8z"/>
	<path class="st1" d="M235.5,370.2c9.8,0,19.2,0,29.2,0c0,1.2,0,2.5,0,3.7c0,7.8,0,15.6-0.1,23.3c0,1.9,0.6,2.8,2.5,3.5
		c21.3,8.1,33.5,28.1,30.6,49.9c-2.7,20.5-20.2,37-42.2,39.9c-23,3-46.7-12.7-52.3-34.8c-5.8-23.2,5.9-45.7,28.8-54.8
		c2.6-1,3.3-2.3,3.2-4.8c-0.2-7.5-0.1-15.1,0-22.6C235.3,372.4,235.5,371.3,235.5,370.2z"/>
	<path class="st1" d="M374.6,264.1c0-9.6,0-18.7,0-28.3c5.5,0,11,0,16.5,0c4.3,0,9.4,1.3,12.8-0.4c3.1-1.6,4.2-6.5,6.3-9.9
		c10.1-16.1,30.5-24.9,49.2-21.5c20.2,3.7,35.8,18.7,39.2,37.5c4.3,23.5-10.3,46.4-33.8,53c-24,6.8-49.2-5-58.4-27.5
		c-1-2.4-2.2-3.1-4.7-3C392.8,264.1,383.8,264.1,374.6,264.1z"/>
	<path class="st1" d="M329,345.6c6.7-6.5,13.4-12.9,20.1-19.4c-0.2-0.4-0.5-0.8-0.7-1.2c0.9,0.8,1.9,1.7,2.8,2.5
		c5.7,5.5,11.4,11,17.1,16.5c1.3,1.3,2.4,1.7,4.3,0.9c17.2-7,33.8-5.6,48.8,5.2c15,10.9,21,25.9,18.7,43.8
		c-3.8,29.9-38.3,48.4-66.8,36c-25-10.9-35.8-37.6-24.8-61.8c0.8-1.8,0.6-2.9-0.8-4.2c-5.8-5.4-11.4-11-17.1-16.5
		c-0.9-0.9-1.8-1.8-2.7-2.7C328.2,345.1,328.6,345.3,329,345.6z"/>
	<path class="st1" d="M171.6,346.2c-5.7,5.3-12.2,11.5-18.8,17.5c-1.8,1.6-2,2.9-1,5.1c10.9,24.3-0.8,51.6-26.2,61.8
		c-24.5,9.8-53.5-2.3-62.9-26.7c-6.6-17.2-3.8-33.4,8.9-47.2c13.2-14.5,30.1-18.7,49.4-14.1c1.3,0.3,2.7,0.5,3.7,1.2
		c3.9,2.6,6.5,1.3,9.4-1.8c5.5-5.9,11.5-11.5,16.4-16.4C157.6,332.6,164.3,339,171.6,346.2z"/>
	<path class="st1" d="M349.1,173.7c-6.7-6.5-13.3-13-20.7-20.1c2.1-1.9,5.4-4.7,8.6-7.6c3.6-3.3,6.9-6.8,10.5-10.1
		c1.4-1.3,1.7-2.3,0.9-4.2C333.5,98.2,360,63,397.5,66.3c22.9,2,41.5,20.7,42.9,43.3c1.4,22.8-14.3,43.3-36.8,48.2
		c-10.7,2.3-21,1.5-31-2.8c-1.9-0.8-3-0.5-4.3,0.9c-5.6,5.6-11.4,11-17.1,16.5c-0.9,0.9-1.9,1.7-2.8,2.6
		C348.6,174.4,348.8,174,349.1,173.7z"/>
	<path class="st1" d="M171.6,153.8c-7.3,6.9-14,13.3-21.1,20c-1.4-1.3-4.1-3.8-6.7-6.3c-3.8-3.7-7.8-7.3-11.4-11.1
		c-1.9-2-3.4-2-5.9-1c-20.7,8.5-44.4,2.2-57.7-15.2c-11.8-15.3-12.5-36.1-1.8-52.7c9.8-15.3,29.9-23.9,48.6-20.8
		c19.5,3.3,34.6,17.1,39,35.6c2.3,10,1.4,19.6-2.9,28.9c-1,2.2-0.6,3.5,1.1,5C159.5,142.3,166,148.5,171.6,153.8z"/>
</g>
</svg>
