<?xml version="1.0" encoding="utf-8"?>
<!-- Generator: Adobe Illustrator 27.8.1, SVG Export Plug-In . SVG Version: 6.00 Build 0)  -->
<svg version="1.1" id="Layer_1" xmlns="http://www.w3.org/2000/svg" xmlns:xlink="http://www.w3.org/1999/xlink" x="0px" y="0px"
	 viewBox="0 0 500 500" style="enable-background:new 0 0 500 500;" xml:space="preserve">
<style type="text/css">
	.st0{fill:#FFD98D;}
	.st1{fill:#9E7C5E;}
	.st2{clip-path:url(#SVGID_00000150071408167786099370000001305077763149374876_);}
	.st3{fill:url(#SVGID_00000124855746216770806040000008146023861929873080_);}
	.st4{opacity:0.77;}
	.st5{fill:#CCA780;}
</style>
<g>
	<g>
		<defs>
			<rect id="SVGID_1_" x="0.3" y="14.2" width="499.5" height="471.5"/>
		</defs>
		<clipPath id="SVGID_00000046311010650893298460000009786808748865814968_">
			<use xlink:href="#SVGID_1_"  style="overflow:visible;"/>
		</clipPath>
		<g style="clip-path:url(#SVGID_00000046311010650893298460000009786808748865814968_);">
			
				<radialGradient id="SVGID_00000110437290355815832480000011741988232196109207_" cx="-738.6558" cy="790.9081" r="1.9979" gradientTransform="matrix(1015.65 0 0 -1027.52 750625.1875 812738.5625)" gradientUnits="userSpaceOnUse">
				<stop  offset="0" style="stop-color:#FFD98D"/>
				<stop  offset="1" style="stop-color:#FFFFFF;stop-opacity:0"/>
			</radialGradient>
			<path style="fill:url(#SVGID_00000110437290355815832480000011741988232196109207_);" d="M57.8,289.8
				c-14.4-65.9,1.4-135.6,41.6-188.4C81,116.1,65.1,134,52.7,154.7c-43.4,72.5-37,168.6,17,233.8c39.7,48,98.6,74,158.5,72.9
				c-4.5-1-9-2.1-13.5-3.4C137,435.5,75.3,369.7,57.8,289.8z"/>
			<path class="st1" d="M481.7,150.3c-4.9-11.6-10.8-22.6-17.5-33.2c-8.3-13.1-29.1-0.9-20.7,12.2c44.9,70.7,42.7,162.6-6.1,230.6
				c-10.9,15.2-23.9,28.6-38.4,39.9c-12.1,9.5-25.3,17.5-39.2,23.9c-13.3,6.2-27.2,10.9-41.5,14c-22.7,5-46.4,6.1-69.8,2.8
				c-71.1-10.1-133.7-60-159.1-128.2c-25.9-69.6-12.1-150.2,36.9-206c16.2-18.4,35.4-33.4,56.3-44.6c13.4-7.1,27.4-12.7,42-16.6
				c15.2-4.1,30.9-6.5,46.7-7c21.6-0.6,43.4,2.2,64.7,8.9c11.1,3.5,21.6,7.9,31.9,13.3c13.7,7.1,25.8-13.8,12.1-20.9
				C314.6,5.6,237.7,6.2,173.9,39.1c-47.3,11-91,37.1-122.5,75.9C-8.3,188.6-17,294.8,32,376.5c48.7,81.4,144.4,123.4,236.5,104.9
				c20.4-4.1,39.9-11.2,58-20.9c42-9.9,81.3-31.7,111.6-64C499.7,331.2,516.9,233.2,481.7,150.3L481.7,150.3z M69.7,388.5
				c-54-65.2-60.4-161.3-17-233.8C65.1,134,81,116.1,99.4,101.5c-40.1,52.7-55.9,122.5-41.6,188.4C75.2,369.7,137,435.5,214.7,458
				c4.5,1.3,9,2.4,13.5,3.4C168.3,462.4,109.4,436.5,69.7,388.5z"/>
			<g class="st4">
				<path class="st1" d="M421.3,93.9c15.4,0,15.4-24.2,0-24.2C405.9,69.7,405.9,93.9,421.3,93.9z"/>
			</g>
		</g>
	</g>
	<g>
		<g>
			<path class="st5" d="M284.2,213.4l82-44.2c4-2.2,3.8-8-0.4-9.9l-80.5-35.9c-1.4-0.6-3.1-0.6-4.5,0l-83.3,36.9
				c-4.2,1.9-4.4,7.8-0.3,9.9l81.8,43.3C280.7,214.3,282.6,214.3,284.2,213.4z"/>
			<path class="st1" d="M286.2,185.5l72.7-39.2c7-3.8,6.7-14-0.6-17.3L287,97.2c-2.5-1.1-5.3-1.1-7.8,0l-73.9,32.7
				c-7.4,3.3-7.7,13.6-0.6,17.3l72.4,38.3C279.9,187,283.3,187,286.2,185.5z"/>
			<g>
				<path class="st5" d="M276.6,232.6v124.7c0,9.1-9.7,14.8-17.7,10.6l-125.3-67.4c-5.6-3-7.9-9.9-5.1-15.7L176,185
					c3-6.2,10.5-8.7,16.6-5.4l77.9,42.4C274.2,224.2,276.6,228.2,276.6,232.6z"/>
				<g>
					<path class="st5" d="M297.4,221.2l72.3-39.4c8-4.4,18-0.6,21.2,7.9l36.6,97.9c2.6,7-0.3,14.8-6.9,18.4l-18.5,10.1l-0.3-0.8l0,0
						l-17.4-46.5c-3.2-8.5-13.2-12.3-21.2-7.9l-25.3,13.8c-4.8,2.6-7.8,7.7-7.8,13.1v23.1v35.4c0,5.5-3,10.5-7.8,13.1l-10.6,5.8
						c-10,5.4-22.1-1.8-22.1-13.1V234.3C289.6,228.9,292.5,223.8,297.4,221.2z"/>
					<polygon class="st1" points="402.1,316.1 402.3,316.6 402.1,316.1 					"/>
					<rect x="401.9" y="315.3" class="st1" width="0" height="0.8"/>
				</g>
			</g>
		</g>
		
			<rect x="221.1" y="150.6" transform="matrix(-1 -4.419455e-11 4.419455e-11 -1 452.8468 397.1603)" class="st1" width="10.7" height="95.9"/>
		
			<rect x="213.5" y="244.3" transform="matrix(-0.7071 0.7071 -0.7071 -0.7071 570.2427 279.7424)" class="st1" width="27.4" height="27.4"/>
	</g>
</g>
</svg>
