<svg width="200" height="20" viewBox="0 0 200 20" fill="none" xmlns="http://www.w3.org/2000/svg">
<g id="Group">
<path id="Vector" d="M6.84357 0.858643H10.9008L17.1595 19.3073H12.8294L11.9743 16.5237H5.75193L4.89681 19.3073H0.603027L6.84357 0.858643ZM10.8826 12.9758L8.84491 6.426L6.84357 12.9758H10.8826Z" fill="#232221"/>
<path id="Vector_2" d="M24.1824 0.858643H28.3488V15.4502H34.6985V19.3073H24.2006V0.858643H24.1824Z" fill="#232221"/>
<path id="Vector_3" d="M41.8853 0.858643H52.3468V4.71577H46.0517V8.04526H52.274V11.9024H46.0517V15.432H52.4378V19.2892H41.8853V0.858643Z" fill="#232221"/>
<path id="Vector_4" d="M66.8656 13.5216L63.4634 19.3073H59.0786L64.7006 9.81008L59.4061 0.858643H64.0274L67.0112 5.89838L69.9768 0.858643H74.3616L69.1945 9.60994L74.9074 19.3073H70.2679L66.8656 13.5216Z" fill="#232221"/>
<path id="Vector_5" d="M86.3697 0.858643H90.427L96.6857 19.3073H92.3555L91.5004 16.5237H85.2781L84.4229 19.3073H80.1292L86.3697 0.858643ZM90.3906 12.9758L88.3528 6.426L86.3515 12.9758H90.3906Z" fill="#232221"/>
<path id="Vector_6" d="M103.708 0.858643H107.474L114.497 11.8114V0.858643H118.409V19.3073H114.643L107.62 8.37275V19.3073H103.708V0.858643Z" fill="#232221"/>
<path id="Vector_7" d="M127.033 0.858643H132.782C138.605 0.858643 142.553 4.44286 142.553 10.083C142.553 15.7231 138.586 19.3073 132.782 19.3073H127.033V0.858643ZM132.764 15.3592C136.094 15.3592 138.223 13.4853 138.223 10.1012C138.223 6.7171 136.094 4.84313 132.764 4.84313H131.181V15.3774H132.764V15.3592Z" fill="#232221"/>
<path id="Vector_8" d="M154.56 12.1025V19.3255H150.394V0.858643H156.653C160.564 0.858643 162.966 2.80539 162.966 6.60794C162.966 9.1369 161.438 11.0473 158.836 11.7022L164.13 19.3255H159.109L154.56 12.1025ZM156.453 8.75483C157.854 8.75483 158.727 7.9361 158.727 6.58975C158.727 5.26159 157.854 4.42466 156.453 4.42466H154.542V8.73663H156.453V8.75483Z" fill="#232221"/>
<path id="Vector_9" d="M171.372 0.858643H175.538V19.3073H171.372V0.858643Z" fill="#232221"/>
<path id="Vector_10" d="M188.802 0.858643H192.859L199.118 19.3073H194.787L193.932 16.5237H187.71L186.855 19.3073H182.561L188.802 0.858643ZM192.841 12.9758L190.803 6.426L188.802 12.9758H192.841Z" fill="#232221"/>
</g>
</svg>
