<svg width="90" height="84" viewBox="0 0 90 84" fill="none" xmlns="http://www.w3.org/2000/svg">
    <path d="M84.959 0.61438L50.2324 26.6593L57.1777 11.0324L84.959 0.61438Z" fill="#E2761B"/>
    <path d="M4.90039 0.61438L39.3638 26.6627L33.2533 11.1943L4.90039 0.61438Z" fill="#E4761B"/>
    <path d="M71.0679 59.6495L63.3545 74.6022L83.1526 80.0493L88.4312 59.6495H71.0679Z" fill="#E4761B"/>
    <path d="M1.61426 59.6495L7.27086 79.2731L27.069 73.826L18.9775 59.6495H1.61426Z" fill="#E4761B"/>
    <path d="M25.5736 36.4742L20.0566 44.8195L39.7151 45.6924L39.0168 24.5674L25.5736 36.4742Z" fill="#E4761B"/>
    <path d="M64.4379 36.4731L50.8201 24.3219L50.3662 45.6913L69.9898 44.8184L64.4379 36.4731Z" fill="#E4761B"/>
    <path d="M25.9219 75.2767L38.4938 68.8445L28.2979 60.8833L25.9219 75.2767Z" fill="#E4761B"/>
    <path d="M51.5156 68.8445L64.121 75.2767L61.7115 60.8833L51.5156 68.8445Z" fill="#E4761B"/>
    <path d="M64.1225 75.2766L51.5205 68.8408L52.4633 77.0367L52.3585 80.4856L64.1225 75.2766Z" fill="#D7C1B3"/>
    <path d="M25.9229 75.2766L37.6916 80.4856L37.6218 77.0367L38.4947 68.8408L25.9229 75.2766Z" fill="#D7C1B3"/>
    <path d="M36.3418 56.1769L29.3965 52.8639L34.2976 49.2316L36.3418 56.1769Z" fill="#233447" stroke="#233447" stroke-width="0.784148" stroke-linecap="round" stroke-linejoin="round"/>
    <path d="M53.7051 56.1769L55.742 49.2316L60.6504 52.8639L53.7051 56.1769Z" fill="#233447" stroke="#233447" stroke-width="0.784148" stroke-linecap="round" stroke-linejoin="round"/>
    <path d="M26.6927 74.6063L29.3955 59.6494H15.5049L26.6927 74.6063Z" fill="#CD6116"/>
    <path d="M60.6494 59.6494L63.3564 74.6063L74.54 59.6494H60.6494Z" fill="#CD6116"/>
    <path d="M69.9907 44.8196L50.3672 45.6925L52.1829 55.7836L55.081 49.708L62.0645 52.8855L69.9907 44.8196Z" fill="#CD6116"/>
    <path d="M28.0197 52.8855L35.0032 49.708L37.8664 55.7836L39.7171 45.6925L20.0586 44.8196L28.0197 52.8855Z" fill="#CD6116"/>
    <path d="M20.0586 44.8196L28.2991 60.8816L28.0197 52.8855L20.0586 44.8196Z" fill="#E4751F" stroke="#E4751F" stroke-width="0.784148" stroke-linecap="round" stroke-linejoin="round"/>
    <path d="M62.065 52.8855L61.7158 60.8816L69.9912 44.8196L62.065 52.8855Z" fill="#E4751F" stroke="#E4751F" stroke-width="0.784148" stroke-linecap="round" stroke-linejoin="round"/>
    <path d="M39.7178 45.6918L37.8672 55.7829L40.1717 67.6897L40.6955 52.0118L39.7178 45.6918Z" fill="#E4751F" stroke="#E4751F" stroke-width="0.784148" stroke-linecap="round" stroke-linejoin="round"/>
    <path d="M50.3676 45.6918L49.4248 51.9769L49.8438 67.6897L52.1833 55.7829L50.3676 45.6918Z" fill="#E4751F" stroke="#E4751F" stroke-width="0.784148" stroke-linecap="round" stroke-linejoin="round"/>
    <path d="M52.2267 55.8577L50.2324 68.8137L51.6612 70.0675L60.3527 61.4049L60.6504 52.7042L52.2267 55.8577Z" fill="#F6851B" stroke="#F6851B" stroke-width="0.784148" stroke-linecap="round" stroke-linejoin="round"/>
    <path d="M29.3965 52.7042L29.636 61.4049L38.3775 70.0675L39.8145 68.8137L37.8386 55.8577L29.3965 52.7042Z" fill="#F6851B" stroke="#F6851B" stroke-width="0.784148" stroke-linecap="round" stroke-linejoin="round"/>
    <path d="M52.6633 79.876L52.7724 75.9214L51.8629 74.9859H38.1476L37.3108 75.9214L37.3836 79.876L25.9238 73.5402L29.9257 77.3672L38.0384 83.9581H51.9721L60.1212 77.3672L64.1231 73.5402L52.6633 79.876Z" fill="#C0AD9E"/>
    <path d="M52.601 67.9485L50.64 66.595H39.3232L37.3622 67.9485L36.3408 77.0129L37.2805 76.1106H52.6827L53.7041 77.0129L52.601 67.9485Z" fill="#161616"/>
    <path d="M86.5765 28.0943L89.5445 13.8481L85.11 0.61438L51.5195 25.5454L64.4389 36.4745L82.7007 41.8168L86.7511 37.103L85.0052 35.846L87.7986 33.297L85.6338 31.621L88.4271 29.491L86.5765 28.0943Z" fill="#763D16"/>
    <path d="M0.503906 13.8481L3.47188 28.0943L1.58634 29.491L4.37973 31.621L2.24977 33.297L5.04316 35.846L3.29729 37.103L7.31279 41.8168L25.5746 36.4745L38.494 25.5454L4.90349 0.61438L0.503906 13.8481Z" fill="#763D16"/>
    <path d="M82.1379 40.6618L63.4383 35.3411L69.1232 43.6526L60.6494 59.6497H71.0674H88.4307L82.1379 40.6618Z" fill="#F6851B"/>
    <path d="M26.6004 35.3411L7.85257 40.6618L1.61523 59.6497H18.9785H29.3965L20.9367 43.6526L26.6004 35.3411Z" fill="#F6851B"/>
    <path d="M50.5154 44.9606L51.7038 25.1463L57.1777 11.0325H32.8691L38.2711 25.1463L39.5315 44.9606L39.9637 51.2106L39.9997 66.595H49.9752L50.0472 51.2106L50.5154 44.9606Z" fill="#F6851B"/>
    </svg>
    