<svg width="252" height="236" viewBox="0 0 252 236" fill="none" xmlns="http://www.w3.org/2000/svg">
<g clip-path="url(#clip0_1818_4762)">
<path d="M29.0321 137.932C21.7782 104.952 29.7494 70.038 49.9958 43.6504C40.7431 50.9713 32.7074 59.9424 26.4529 70.305C4.53815 106.602 7.7621 154.677 35.0125 187.326C55.0494 211.327 84.7742 224.343 114.991 223.809C112.71 223.308 110.437 222.75 108.18 222.102C68.9849 210.866 37.8335 177.934 29.0321 137.932Z" fill="url(#paint0_radial_1818_4762)"/>
<path d="M242.9 68.1119C240.426 62.328 237.476 56.8029 234.083 51.5044C229.891 44.96 219.422 51.0352 223.645 57.628C246.317 93.0029 245.197 139.024 220.55 173.048C215.037 180.652 208.476 187.341 201.158 192.996C195.049 197.728 188.407 201.741 181.403 204.96C174.697 208.042 167.669 210.396 160.456 211.982C148.978 214.498 137.042 215.056 125.25 213.389C89.3998 208.317 57.7729 183.353 44.9818 149.24C31.9168 114.391 38.8563 74.0414 63.5921 46.1168C71.7648 36.8868 81.4366 29.3879 92.0192 23.7901C98.7573 20.2308 105.866 17.448 113.193 15.4661C120.857 13.3952 128.764 12.2142 136.735 11.9796C147.632 11.6641 158.65 13.104 169.37 16.4449C174.947 18.1841 180.283 20.4168 185.482 23.0863C192.397 26.6456 198.514 16.178 191.583 12.6105C158.602 -4.35292 119.777 -4.01316 87.6186 12.4164C63.7775 17.9172 41.6853 30.9896 25.7913 50.4204C-4.32848 87.2433 -8.69693 140.423 16.0146 181.339C40.6053 222.077 88.8759 243.102 135.341 233.823C145.634 231.768 155.475 228.193 164.623 223.38C185.828 218.445 205.623 207.5 220.953 191.346C251.976 158.648 260.656 109.594 242.908 68.1038L242.9 68.1119ZM35.0118 187.325C7.76133 154.676 4.53738 106.601 26.4522 70.3041C32.7066 59.9416 40.7504 50.9785 49.9951 43.6496C29.7487 70.0291 21.7775 104.951 29.0313 137.931C37.8327 177.933 68.9841 210.865 108.179 222.102C110.436 222.749 112.709 223.307 114.99 223.808C84.7734 224.334 55.0486 211.327 35.0118 187.325Z" fill="#9E7C5E"/>
<path d="M79.3252 87.1713H89.8514L109.501 117.951V87.1713H120.447V139.008H109.92L90.2705 108.301V139.008H79.3252V87.1713Z" fill="#9E7C5E"/>
<path d="M130.546 87.1713H159.948V98.0192H142.192V107.735H159.521V118.582H142.192V139.008H130.546V87.1713Z" fill="#9E7C5E"/>
<path d="M175.866 98.0192H164.22V87.1713H199.167V98.0192H187.521V139.008H175.874V98.0192H175.866Z" fill="#9E7C5E"/>
<g opacity="0.77">
<path d="M212.442 39.8646C220.22 39.8646 220.236 27.7305 212.442 27.7305C204.648 27.7305 204.648 39.8646 212.442 39.8646Z" fill="#9E7C5E"/>
</g>
</g>
<defs>
<radialGradient id="paint0_radial_1818_4762" cx="0" cy="0" r="1" gradientUnits="userSpaceOnUse" gradientTransform="translate(206.446 25.2552) scale(1023.77 1027.52)">
<stop stop-color="#FFD98D"/>
<stop offset="1" stop-color="white" stop-opacity="0"/>
</radialGradient>
<clipPath id="clip0_1818_4762">
<rect width="252" height="236" fill="white"/>
</clipPath>
</defs>
</svg>
