<svg width="1325" height="490" viewBox="0 0 1325 490" fill="none" xmlns="http://www.w3.org/2000/svg">
<path d="M1281 0H33C16.4315 0 3 13.4314 3 30V460C3 476.569 16.4315 490 33 490H1281C1297.57 490 1311 476.569 1311 460V30C1311 13.4315 1297.57 0 1281 0Z" fill="#2E2C2A"/>
<path opacity="0.64" d="M520.463 354.794L502.745 361H0V268.227C29.8127 266.732 64.663 266.09 103.158 267.495C227.807 272.043 257.28 293.168 377.903 300.584C453.661 305.246 512.3 300.801 629.585 291.912C768.354 281.393 767.101 272.725 872.045 267.816C954.727 263.949 977.909 268.281 1124.39 268.457C1210.34 268.561 1280.25 267.165 1325 266V361H572.939L520.463 354.794Z" fill="url(#paint0_linear_107_2)" fill-opacity="0.5"/>
<path opacity="0.64" d="M730.693 360.999H809.632L789.706 354.807L730.693 360.999Z" fill="url(#paint1_linear_107_2)"/>
<path d="M999.015 361.403L981.066 355L787.332 378.481L0 453.213V490H759.573L1040 389.865L999.015 361.403Z" fill="url(#paint2_radial_107_2)"/>
<mask id="mask0_107_2" style="mask-type:luminance" maskUnits="userSpaceOnUse" x="947" y="160" width="280" height="249">
<path d="M1227 160.577H947V408.589H1227V160.577Z" fill="white"/>
</mask>
<g mask="url(#mask0_107_2)">
<path d="M1039.52 321.988V389.149L974.431 353.973L995.724 298.857L1039.52 321.988Z" fill="#E8D9CA"/>
<path d="M974.426 353.973L974.164 354.649L946.996 340.306L974.426 353.973Z" fill="#E8D9CA"/>
<path d="M1088.08 274.933V408.589L1227 336.16L1174.53 229.275L1088.08 274.933H1088.08Z" fill="#CCA881"/>
<path d="M1076.34 274.933L989.894 229.275L946.996 340.306L974.164 354.649L974.426 353.973L995.719 298.857L1039.51 321.988V389.149L1076.34 408.589V274.933H1076.34Z" fill="#CCA881"/>
<path d="M973.99 355.113L1039.52 389.708V389.154L974.168 354.654L973.99 355.113Z" fill="#9E7C5E"/>
<path d="M974.431 353.973L974.169 354.649L1039.52 389.145V350.147C1019.23 351.301 992.139 352.86 974.431 353.969V353.973Z" fill="#9E7C5E"/>
<path d="M1082.2 184.24L1169.31 221.597L1083.51 265.596L997.723 220.767" fill="#CCA881"/>
<path d="M1227 336.16L1174.54 229.275L1088.08 274.933V408.589" fill="#CCA881"/>
<path d="M1083.52 265.596L997.728 220.767L1082.2 184.24L1169.31 221.597L1083.51 265.596H1083.52Z" fill="#CCA881"/>
<path d="M1083.52 241.933L997.728 197.105L1082.2 160.577L1169.31 197.934L1083.51 241.933H1083.52Z" fill="#9E7C5E"/>
<path d="M1138.5 296.811H1128.83V212.399H1138.5V296.811Z" fill="#9E7C5E"/>
<path d="M1132.98 323.912L1115.38 306.856L1132.98 289.799L1150.57 306.856L1132.98 323.912Z" fill="#9E7C5E"/>
</g>
<path opacity="0.64" d="M1078.5 217C1126.82 217 1166 177.377 1166 128.5C1166 79.6228 1126.82 40 1078.5 40C1030.18 40 991 79.6228 991 128.5C991 177.377 1030.18 217 1078.5 217Z" fill="url(#paint3_radial_107_2)"/>
<path d="M1059 175C1059 184.94 1067.29 193 1077.5 193C1087.72 193 1096 184.94 1096 175H1059H1059Z" fill="#D6AF55"/>
<path d="M1117 117.803C1117 95.8197 1100.21 78 1079.5 78C1058.79 78 1042 95.8197 1042 117.803C1042 123.915 1043.68 129.609 1043.68 129.609C1046.57 139.133 1051.47 141.726 1055.33 151.075C1056.65 154.266 1058.24 159.217 1058.7 166H1100.3C1100.37 159.636 1101.67 154.99 1102.79 152.006C1106.49 142.153 1112.17 139.691 1115.32 129.609C1115.32 129.609 1117 124.01 1117 117.803Z" fill="#E8D9CA" fill-opacity="0.33" stroke="white" stroke-width="2.32304" stroke-miterlimit="10"/>
<path d="M1088.93 165L1082.85 135.874C1081.79 135.942 1080.69 135.973 1079.55 136.005C1077.89 136.054 1076.17 136.104 1074.46 136.009C1073.47 145.881 1071.61 156.886 1070.11 164.973L1067.86 164.577C1069.36 156.531 1071.2 145.58 1072.19 135.784C1069.55 135.384 1067.07 134.458 1065.14 132.426C1063 130.179 1060.66 125.688 1062.93 122.532C1063.82 121.296 1065.37 120.415 1067.16 120.113C1069.06 119.794 1071 120.158 1072.35 121.089C1075.4 123.188 1075.1 127.796 1074.94 130.273C1074.87 131.419 1074.77 132.593 1074.67 133.793C1076.24 133.874 1077.87 133.824 1079.48 133.779C1080.5 133.748 1081.47 133.721 1082.38 133.672L1081.72 130.52C1080.53 127.441 1081.42 123.952 1083.92 122.015C1086.04 120.365 1089.62 119.691 1091.94 121.413C1093.03 122.222 1093.72 123.489 1093.93 125.072C1094.25 127.472 1093.42 130.399 1091.85 132.354C1090.19 134.427 1087.87 135.276 1085.13 135.654L1091.17 164.555L1088.93 165H1088.93ZM1068.52 122.231C1068.2 122.231 1067.87 122.258 1067.55 122.312C1066.35 122.514 1065.35 123.062 1064.8 123.818C1063.39 125.769 1065.13 129.145 1066.82 130.916C1068.29 132.467 1070.23 133.222 1072.39 133.568C1072.5 132.399 1072.58 131.253 1072.66 130.138C1072.79 128.097 1073.04 124.294 1071.03 122.914C1070.39 122.473 1069.48 122.235 1068.52 122.235V122.231ZM1088.62 122.631C1087.52 122.631 1086.29 123.022 1085.35 123.755C1083.6 125.112 1083.01 127.598 1083.89 129.801L1083.93 129.891L1084.68 133.469C1086.99 133.164 1088.83 132.512 1090.05 130.988C1091.25 129.495 1091.91 127.18 1091.67 125.359C1091.58 124.676 1091.31 123.741 1090.56 123.184C1090.06 122.811 1089.37 122.631 1088.62 122.631Z" fill="white"/>
<path d="M1095.93 162H1060.07C1057.27 162 1055 164.462 1055 167.5C1055 170.538 1057.27 173 1060.07 173H1095.93C1098.73 173 1101 170.538 1101 167.5C1101 164.462 1098.73 162 1095.93 162Z" fill="#D6AF55"/>
<path d="M1095.93 170H1060.07C1057.27 170 1055 172.462 1055 175.5C1055 178.538 1057.27 181 1060.07 181H1095.93C1098.73 181 1101 178.538 1101 175.5C1101 172.462 1098.73 170 1095.93 170Z" fill="#B58F42"/>
<defs>
<linearGradient id="paint0_linear_107_2" x1="667.221" y1="221.7" x2="664.011" y2="359.331" gradientUnits="userSpaceOnUse">
<stop stop-color="#FFD98D"/>
<stop offset="1" stop-color="white" stop-opacity="0"/>
</linearGradient>
<linearGradient id="paint1_linear_107_2" x1="762.047" y1="219.181" x2="764.889" y2="356.51" gradientUnits="userSpaceOnUse">
<stop stop-color="#FFD98D"/>
<stop offset="1" stop-color="white" stop-opacity="0"/>
</linearGradient>
<radialGradient id="paint2_radial_107_2" cx="0" cy="0" r="1" gradientUnits="userSpaceOnUse" gradientTransform="translate(856.917 361.161) scale(975.287 673.828)">
<stop stop-color="#FFD98D"/>
<stop offset="1" stop-color="white" stop-opacity="0"/>
</radialGradient>
<radialGradient id="paint3_radial_107_2" cx="0" cy="0" r="1" gradientUnits="userSpaceOnUse" gradientTransform="translate(1078.5 128.5) scale(87.5 88.5)">
<stop stop-color="#FFD98D"/>
<stop offset="1" stop-color="white" stop-opacity="0"/>
</radialGradient>
</defs>
</svg>
