<svg width="1311" height="654" viewBox="0 0 1311 654" fill="none" xmlns="http://www.w3.org/2000/svg">
<mask id="mask0_1616_371" style="mask-type:alpha" maskUnits="userSpaceOnUse" x="0" y="0" width="1311" height="654">
<rect width="1311" height="654" rx="50" fill="#232221"/>
</mask>
<g mask="url(#mask0_1616_371)">
<rect width="1311" height="654" rx="50" fill="#232221"/>
<path d="M-138 600.913L813 472L961 546L589.106 744H-138V600.913Z" fill="#AB9988"/>
<circle cx="892.5" cy="507.5" r="549.5" fill="url(#paint0_radial_1616_371)" style="mix-blend-mode:overlay"/>
<path d="M945.224 408.191V468.941V553.068L802.954 477.187L849.498 358.29L945.224 408.191Z" fill="#E8D9CA"/>
<path d="M1025.71 306.682L836.761 208.192L743 447.706L802.383 478.644L802.953 477.187L849.498 358.29L945.223 408.191V468.941V553.068L1025.71 595V306.682Z" fill="#CCA780"/>
<path d="M802.954 477.187L802.383 478.644L945.224 553.061V468.941C900.867 471.427 841.664 474.791 802.954 477.187Z" fill="#9E7C5E"/>
<path d="M1355 438.756L1240.33 208.192L1051.37 306.682V595" fill="#CCA780"/>
<path d="M1041.4 286.538L853.882 189.836L1038.52 111.041L1228.91 191.625L1041.4 286.538Z" fill="#CCA780"/>
<path d="M1041.4 235.497L853.882 138.795L1038.52 60L1228.91 140.584L1041.4 235.497Z" fill="#9E7C5E"/>
<path d="M1161.58 353.877H1140.42V171.784H1161.58V353.877Z" fill="#9E7C5E"/>
<path d="M1149.49 412.34L1111.02 375.55L1149.49 338.761L1187.95 375.55L1149.49 412.34Z" fill="#9E7C5E"/>
</g>
<defs>
<radialGradient id="paint0_radial_1616_371" cx="0" cy="0" r="1" gradientUnits="userSpaceOnUse" gradientTransform="translate(892.5 507.5) rotate(90) scale(549.5)">
<stop stop-color="#FFFEE4"/>
<stop offset="0.463415" stop-color="#ECECDF" stop-opacity="0.505208"/>
<stop offset="1" stop-color="#D9D9D9" stop-opacity="0"/>
</radialGradient>
</defs>
</svg>
